<svg width="100%" height="100%" viewBox="0 0 1100 1067" version="1.1" xmlns="http://www.w3.org/2000/svg" xmlns:xlink="http://www.w3.org/1999/xlink" xml:space="preserve" xmlns:serif="http://www.serif.com/" style="fill-rule:evenodd;clip-rule:evenodd;stroke-linejoin:round;stroke-miterlimit:2;">
    <g transform="matrix(0.841884,-0.317477,0.317477,0.841884,-186.796,347.145)">
        <g id="Layer_1">
            <g>
                <path d="M393.72,560.03C393.72,560.03 555.99,812.99 764.43,932C823.65,965.81 896.67,965.03 954.55,928.98C1002.27,899.26 1059.52,855.15 1095.32,791.29C1240.57,532.19 1307.62,511.53 1307.62,511.53C1307.62,511.53 1101.06,586.08 960.38,440.78C819.7,295.48 698.18,259.35 698.18,259.35L393.72,560.03Z" style="fill:rgb(198,60,60);fill-rule:nonzero;"/>
                <path d="M1005.02,891.67C988.23,905.2 971.31,916.89 955.3,926.84C897.4,962.92 824.38,963.68 765.16,929.87C556.73,810.86 394.46,557.89 394.46,557.89L491.44,462.12C496.73,469.17 503.72,478.28 512.21,489.05C567.07,572.44 701.31,758.75 867.65,863.1C909.24,889.18 958.11,898.91 1005.02,891.66L1005.02,891.67Z" style="fill:rgb(181,42,42);fill-rule:nonzero;"/>
                <path d="M401.65,360.9C401.65,360.9 43.15,441.5 4.55,661.13C-40.89,919.66 267.65,866.89 330.13,746.48C392.6,626.05 401.65,360.9 401.65,360.9Z" style="fill:rgb(181,226,236);fill-rule:nonzero;"/>
                <path d="M394,390.94C394,390.94 141.92,447.61 114.77,602.05C82.82,783.86 299.78,746.75 343.72,662.07C387.65,577.39 394,390.94 394,390.94Z" style="fill:rgb(161,217,226);fill-rule:nonzero;"/>
                <path d="M811.85,357.26C811.85,357.26 1169.48,441.57 1205.8,661.6C1248.56,920.58 940.58,864.62 879.36,743.56C818.13,622.51 811.84,357.26 811.84,357.26L811.85,357.26Z" style="fill:rgb(181,226,236);fill-rule:nonzero;"/>
                <path d="M817.96,390.99C817.96,390.99 1069.44,450.28 1095,604.99C1125.05,787.12 908.5,747.77 865.42,662.63C822.38,577.5 817.95,390.99 817.95,390.99L817.96,390.99Z" style="fill:rgb(161,217,226);fill-rule:nonzero;"/>
                <g>
                    <path d="M175.76,820.27C180.45,843.7 174.13,844.1 178.52,862.74C185.37,891.87 191.25,904.45 214.19,913.78C252.08,929.19 273.37,906.09 263.65,893.18C257.02,884.36 250.36,895.85 233.47,890.67C201.57,880.94 208.19,878.08 225.41,878.25C238.69,878.4 237.57,877.4 241.64,876.71C250.08,875.31 248.14,863.93 236.1,863.28C218.94,862.34 219.74,863.8 204.74,855.18C191.7,847.67 185.5,821.82 185.5,821.82L175.74,820.26L175.76,820.27Z" style="fill:rgb(50,49,48);fill-rule:nonzero;"/>
                    <path d="M287.6,509.63C202.03,551.94 158.23,636.72 156.34,718C154.87,781.49 178.52,862.75 178.52,862.75L194.63,846.32C194.63,846.32 168.99,794.28 174.5,720.74C179.95,648.06 213.31,576.23 281.72,564.69C286.44,563.9 291.84,507.53 287.59,509.63L287.6,509.63Z" style="fill:rgb(50,49,48);fill-rule:nonzero;"/>
                </g>
                <path d="M833.85,536.66C916.81,595.43 1011.17,599.22 1095.99,572.32C1162.26,551.3 1238.49,451.5 1238.49,451.5L1214.11,443.41C1214.11,443.41 1166.64,518.44 1088.13,539.52C1010.55,560.34 926.18,547.57 882.87,492.75C879.88,488.96 829.73,533.75 833.84,536.66L833.85,536.66Z" style="fill:rgb(50,49,48);fill-rule:nonzero;"/>
                <path d="M550.66,950.15L588.09,1066.29L625.91,950.27L550.66,950.15Z" style="fill:rgb(40,40,40);fill-rule:nonzero;"/>
                <path d="M934.66,617.77C934.35,806.11 781.4,958.53 593.07,958.22C404.72,957.91 252.3,804.97 252.61,616.63C252.92,428.29 405.86,275.86 594.21,276.17C782.55,276.48 934.97,429.42 934.66,617.77Z" style="fill:rgb(246,178,25);fill-rule:nonzero;"/>
                <g transform="matrix(0.707107,-0.707107,0.707107,0.707107,-265.76,599.21)">
                    <circle cx="590.43" cy="620.4" r="341.02" style="fill:url(#_Radial1);"/>
                </g>
                <path d="M934.66,619.38C934.34,808.6 780.68,961.74 591.46,961.43C402.23,961.11 249.09,807.46 249.41,618.24C249.73,429.01 403.38,275.87 592.61,276.18C781.83,276.5 934.98,430.15 934.66,619.38Z" style="fill:rgb(245,174,27);fill-rule:nonzero;"/>
                <path d="M935.12,621.68C933.52,820.31 774.32,908.24 774.32,908.24C774.32,908.24 920.91,822.87 922.84,629.67C926.69,243.82 402.07,276.56 590.41,276.88C778.75,277.19 936.69,426.33 935.13,621.68L935.12,621.68Z" style="fill:rgb(246,178,25);fill-rule:nonzero;"/>
                <path d="M405.59,905.08C405.59,905.08 482.21,933.36 589.88,931.94C702.77,930.46 774.32,908.24 774.32,908.24C774.32,908.24 705.91,962.14 587.43,963.16C474.23,964.14 405.6,905.08 405.6,905.08L405.59,905.08Z" style="fill:rgb(40,40,40);fill-rule:nonzero;"/>
                <path d="M676.19,491.76C685.56,501.16 647.22,528.34 586.43,528.23C514.54,528.11 490.92,506.18 500.97,496.17C511.32,485.85 536.18,509.84 586.02,509.92C640.25,510.01 664.21,479.74 676.19,491.76Z" style="fill:rgb(50,49,48);fill-rule:nonzero;"/>
                <path d="M363.08,22.27C344.66,9.36 311.85,-14.45 273.7,11.87C235.56,38.18 279.84,79.91 318.29,73.49C348.07,68.52 361.36,51.1 361.36,51.1C361.36,51.1 402.93,80.93 435.11,143.82C439.6,152.6 455.18,149.92 446.41,135.25C437.64,120.58 395.03,44.66 363.07,22.27L363.08,22.27Z" style="fill:rgb(50,49,48);fill-rule:nonzero;"/>
                <path d="M273.51,28.58C273.51,28.58 282.16,15.7 297.96,12.5C328.89,6.23 332.13,25.44 332.13,25.44C332.13,25.44 323.72,15.79 295.5,23.73C276.68,29.02 273.51,28.58 273.51,28.58Z" style="fill:rgb(103,103,103);fill-rule:nonzero;"/>
                <path d="M793.86,28.02C811.09,13.55 841.68,-13.04 882,9.83C922.29,32.71 881.83,78.15 842.96,75.12C812.86,72.77 798.09,56.59 798.09,56.59C798.09,56.59 759.28,89.93 732.72,155.41C729.02,164.54 713.26,163.24 720.72,147.86C728.17,132.48 763.98,53.11 793.85,28.02L793.86,28.02Z" style="fill:rgb(50,49,48);fill-rule:nonzero;"/>
                <path d="M759.23,207.6C759.15,257.12 679.29,297.13 580.83,296.96C482.39,296.8 402.65,256.52 402.73,207C402.81,157.49 482.69,117.48 581.13,117.65C679.58,117.81 759.31,158.09 759.23,207.6Z" style="fill:rgb(247,178,24);fill-rule:nonzero;"/>
                <path d="M768.83,214.02C768.75,263.54 688.89,303.54 590.43,303.38C491.99,303.22 412.25,262.94 412.33,213.43C412.41,163.92 492.29,123.91 590.73,124.08C689.18,124.24 768.91,164.52 768.83,214.03L768.83,214.02Z" style="fill:url(#_Radial2);fill-rule:nonzero;"/>
                <g opacity="0.5">
                    <path d="M572.43,353.8C489.17,353.66 325.01,406.21 325.01,406.21C325.01,406.21 317.34,415.27 318.59,417.01C348.25,458.26 395.11,482.56 449.79,482.65C509.09,482.75 561.06,451.33 589.88,404.18C618.07,451.76 669.87,483.72 729.2,483.82C784.11,483.91 830.35,454.96 862.08,415C863.47,413.25 851.21,401.22 851.21,401.22C851.21,401.22 653.6,361.92 588.45,354.62C583.55,354.07 578.17,353.81 572.41,353.8" style="fill:rgb(221,161,39);fill-rule:nonzero;"/>
                </g>
                <path d="M755.23,210.79C755.15,258.54 675.29,297.11 576.83,296.95C478.39,296.79 398.64,257.94 398.72,210.19C398.8,162.45 478.67,123.87 577.12,124.04C675.57,124.2 755.31,163.05 755.23,210.79Z" style="fill:rgb(245,174,27);fill-rule:nonzero;"/>
                <path d="M774.16,214.03C774.16,214.03 739.43,129.13 568.84,128.84C453.56,128.65 356.84,206.93 356.84,206.93C356.84,206.93 451.99,117.43 568.06,117.36C755.11,117.24 774.16,214.03 774.16,214.03Z" style="fill:rgb(246,178,25);fill-rule:nonzero;"/>
                <path d="M729.87,138.28C670.85,138.18 619.06,169.3 590.11,216.06C561.45,167.01 508.3,133.99 447.38,133.89C355.94,133.74 281.69,207.74 281.54,299.18C281.39,390.62 355.39,464.87 446.83,465.03C506.78,465.13 559.33,433.36 588.47,385.7C616.97,433.81 669.36,466.12 729.33,466.22C819.89,466.37 893.42,393.08 893.58,302.53C893.73,211.98 820.44,138.44 729.88,138.29L729.87,138.28Z" style="fill:rgb(211,138,22);fill-rule:nonzero;"/>
                <g transform="matrix(0.00174533,-0.999998,0.999998,0.00174533,146.37,745.98)">
                    <circle cx="446.8" cy="299.68" r="143.29" style="fill:white;"/>
                </g>
                <path d="M873.17,306.8C873.04,385.94 808.78,449.99 729.64,449.85C650.49,449.72 586.45,385.46 586.58,306.32C586.71,227.18 650.97,163.13 730.11,163.27C809.25,163.4 873.29,227.66 873.16,306.8L873.17,306.8Z" style="fill:white;fill-rule:nonzero;"/>
                <path d="M479.51,308.39C466.17,306.81 456.91,292.26 458.85,275.91C460.25,264.07 467.16,254.61 475.91,250.84C466.82,243.58 455.88,239.33 444.09,239.31C412.45,239.26 386.74,269.67 386.68,307.26C386.62,344.84 412.22,375.35 443.86,375.4C475.51,375.45 501.21,345.04 501.28,307.45C501.28,304.3 501.05,301.22 500.7,298.18C495.42,305.23 487.66,309.36 479.51,308.39Z" style="fill:rgb(50,49,48);fill-rule:nonzero;"/>
                <path d="M777.54,308.86C764.6,307.32 755.62,293.21 757.5,277.33C758.86,265.84 765.56,256.66 774.05,253C765.23,245.96 754.62,241.83 743.17,241.81C712.46,241.76 687.51,271.28 687.45,307.76C687.39,344.24 712.24,373.85 742.95,373.9C773.67,373.95 798.61,344.43 798.67,307.95C798.67,304.89 798.45,301.9 798.11,298.95C792.99,305.79 785.46,309.8 777.54,308.87L777.54,308.86Z" style="fill:rgb(50,49,48);fill-rule:nonzero;"/>
                <path d="M575.06,236.12C575.06,236.12 536.23,180.03 443.22,179.87C362.5,179.74 317.73,236.18 317.73,236.18C322.83,222.32 362.57,157.59 443.26,155.31C505.55,153.55 562.54,193.97 575.06,236.11L575.06,236.12Z" style="fill:rgb(236,236,236);fill-rule:nonzero;"/>
                <path d="M856.45,238.59C856.45,238.59 818.89,187.38 725.89,186.73C645.18,186.16 603.49,238.57 603.49,238.57C608.67,224.73 645.37,164.02 726.07,162.17C788.37,160.74 840.92,196.54 856.46,238.59L856.45,238.59Z" style="fill:rgb(236,236,236);fill-rule:nonzero;"/>
                <path d="M1105.01,799.08C1105.01,799.08 1094.5,823.39 1076.45,815.58C1058.41,807.78 1068.93,783.46 1068.93,783.46L1367.67,125.86C1367.67,125.86 1372.18,114.41 1379.32,117.5C1387.59,121.08 1382.71,132.37 1382.71,132.37L1105.01,799.09L1105.01,799.08Z" style="fill:rgb(81,63,54);fill-rule:nonzero;"/>
                <path d="M1238.11,424.57C1241.25,427.07 1242.19,431.11 1240.22,433.58L1223.24,454.94C1221.26,457.42 1212.02,468.36 1208.88,465.86L1204.28,470.99C1201.14,468.49 1209.89,448.37 1211.87,445.89C1216.11,440.55 1228.86,424.53 1228.86,424.53C1230.83,422.05 1234.98,422.06 1238.12,424.56L1238.11,424.57Z" style="fill:rgb(50,49,48);fill-rule:nonzero;"/>
                <path d="M269.9,501.82C269.9,501.82 205.91,655.68 301.05,800.9C301.05,800.9 573.17,883.27 882.1,801.87C882.1,801.87 979.06,678.72 915.64,504.06C915.64,504.06 874.5,571.11 709.61,562.23C709.61,562.23 586.04,630.4 469.47,562.64C469.47,562.64 373.02,574.6 269.9,501.81L269.9,501.82Z" style="fill:rgb(18,109,124);fill-rule:nonzero;"/>
                <path d="M448,558.98C458.6,559.81 472.74,560.02 481.56,559.3C482.45,559.23 483.32,559.3 484.09,559.76C496.28,566.97 585.13,624.04 692.72,558.88C693.19,558.6 693.76,558.52 694.3,558.53L722.82,559.07C726.12,559.13 727.58,563.22 725.08,565.37C707.77,580.23 665.19,616.97 589.03,616.7C506.39,616.41 467.44,583.4 445.42,565.27C442.73,563.06 444.53,558.7 448,558.97L448,558.98Z" style="fill:rgb(198,60,60);fill-rule:nonzero;"/>
                <path d="M352.48,863.74C352.48,863.74 562.22,937.89 828.96,866.25C828.96,866.25 741.5,963.44 583.53,963.17C439.93,962.93 352.48,863.74 352.48,863.74Z" style="fill:rgb(18,109,124);fill-rule:nonzero;"/>
                <circle cx="586.61" cy="864.86" r="59.79" style="fill:rgb(245,174,27);"/>
                <circle cx="586.61" cy="864.86" r="49.85" style="fill:rgb(198,60,60);"/>
                <g>
                    <g>
                        <path d="M584.46,837.97L613.46,834.18L593.04,856.9L610.04,854.68L563.44,898.87L582.64,866.81L564.2,869.69L584.46,837.97Z" style="fill:rgb(255,189,53);fill-rule:nonzero;"/>
                    </g>
                    <g>
                        <path d="M585.53,837.38L590.53,836.73L565.27,869.1L585.53,837.38ZM564.51,898.28L587.21,865.77L583.71,866.23L564.51,898.29L564.51,898.28Z" style="fill:rgb(243,173,28);fill-rule:nonzero;"/>
                    </g>
                </g>
                <g>
                    <path d="M683.47,690.01L678.52,694.92L674.44,698.96L588.19,784.47L502.17,698.62L498.15,694.61L493.21,689.68L496.99,682.46L499.1,678.43L510.19,657.23L520.8,636.95L656.04,637.18L667.75,659.73L677.59,678.7L679.69,682.76L683.45,689.99L683.47,690.01Z" style="fill:rgb(243,173,28);fill-rule:nonzero;"/>
                    <path d="M679.71,682.78L677.61,678.72L667.77,659.75L656.06,637.2L520.81,636.97L510.2,657.25L499.11,678.45L497,682.48L493.22,689.7L498.16,694.63L502.18,698.64L588.2,784.49L674.45,698.98L678.53,694.94L683.49,690.03L679.73,682.8L679.71,682.78ZM661.3,694.9L642.73,713.31L588.22,767.35L515.38,694.65L515.35,694.65L508.06,687.38L510.62,682.5L510.7,682.5L528.16,649.13L648.68,649.33L654.08,659.73L666.04,682.76L668.59,687.68L661.31,694.9L661.3,694.9Z" style="fill:rgb(198,60,60);fill-rule:nonzero;"/>
                    <g>
                        <path d="M684.21,689.63L680.45,682.4L678.35,678.35C678.35,678.35 678.32,678.3 678.3,678.27L668.49,659.37L656.78,636.82C656.64,636.54 656.35,636.37 656.04,636.37L520.79,636.14C520.48,636.14 520.19,636.31 520.05,636.59L496.24,682.09L492.46,689.31C492.29,689.63 492.35,690.03 492.61,690.29L501.57,699.23L587.59,785.08C587.75,785.24 587.96,785.32 588.18,785.32C588.39,785.32 588.61,785.24 588.77,785.08L675.02,699.57L684.06,690.61C684.32,690.35 684.38,689.96 684.21,689.63ZM655.54,638.03L667.02,660.14L676.86,679.11C676.86,679.11 676.89,679.16 676.9,679.19L678.96,683.17L682.44,689.86L673.84,698.38L588.18,783.31L502.75,698.05L494.23,689.55L497.73,682.87L521.31,637.81L655.54,638.03ZM514.75,695.24C514.75,695.24 514.85,695.33 514.9,695.36L587.62,767.94C587.78,768.1 587.99,768.18 588.21,768.18C588.43,768.18 588.64,768.1 588.8,767.94L643.31,713.9L669.16,688.27C669.42,688.01 669.48,687.62 669.31,687.29L666.76,682.37L654.8,659.34L649.4,648.94C649.26,648.67 648.97,648.49 648.66,648.49L528.14,648.29C527.83,648.29 527.54,648.46 527.4,648.74L510.08,681.85C509.99,681.92 509.92,682.01 509.87,682.11L507.31,686.99C507.14,687.31 507.2,687.71 507.46,687.97L514.75,695.24ZM511.21,683.15C511.3,683.08 511.37,682.99 511.42,682.89L528.65,649.97L648.16,650.17L653.33,660.12L665.29,683.15L667.56,687.53L642.14,712.73L588.22,766.19L515.97,694.08C515.97,694.08 515.87,693.99 515.82,693.96L509.09,687.24L511.23,683.16L511.21,683.15Z" style="fill:rgb(198,60,60);fill-rule:nonzero;"/>
                    </g>
                    <path d="M619.31,716.43C619.62,717.83 619.38,719.12 618.6,720.28C617.82,721.45 616.76,722.18 615.41,722.49C614.06,722.8 612.79,722.59 611.59,721.86C610.4,721.13 609.65,720.09 609.34,718.74L601.61,685.87L593.23,718.71C592.92,719.9 592.29,720.85 591.36,721.54C590.42,722.24 589.39,722.59 588.25,722.59C587.11,722.59 585.99,722.23 585.06,721.53C584.13,720.83 583.51,719.88 583.2,718.69L575,686.06L567.31,718.35C567.15,719.03 566.87,719.65 566.45,720.22C566.03,720.79 565.54,721.27 564.97,721.66C564.4,722.05 563.76,722.31 563.06,722.43C562.36,722.56 561.65,722.55 560.92,722.39C559.47,722.02 558.43,721.21 557.81,719.93C557.19,718.65 557.03,717.34 557.35,715.99L569.66,664.32C569.97,663.13 570.61,662.2 571.57,661.52C572.53,660.85 573.56,660.5 574.65,660.47C575.74,660.44 576.78,660.74 577.76,661.37C578.75,662 579.39,662.98 579.7,664.33L588.21,698.36L596.91,664.36C597.22,663.01 597.89,662.03 598.9,661.4C599.91,660.78 601.02,660.47 602.21,660.47C603.51,660.47 604.57,660.85 605.4,661.61C606.23,662.37 606.78,663.31 607.03,664.45L619.32,716.4L619.31,716.43Z" style="fill:rgb(198,60,60);fill-rule:nonzero;"/>
                </g>
            </g>
        </g>
    </g>
    <defs>
        <radialGradient id="_Radial1" cx="0" cy="0" r="1" gradientUnits="userSpaceOnUse" gradientTransform="matrix(239.912,240.751,-240.751,239.912,594.859,620.442)"><stop offset="0" style="stop-color:rgb(246,178,25);stop-opacity:0"/><stop offset="0.33" style="stop-color:rgb(245,177,24);stop-opacity:0.01"/><stop offset="0.47" style="stop-color:rgb(244,176,24);stop-opacity:0.05"/><stop offset="0.58" style="stop-color:rgb(241,173,24);stop-opacity:0.11"/><stop offset="0.67" style="stop-color:rgb(237,169,24);stop-opacity:0.2"/><stop offset="0.75" style="stop-color:rgb(232,165,24);stop-opacity:0.31"/><stop offset="0.82" style="stop-color:rgb(226,159,24);stop-opacity:0.45"/><stop offset="0.89" style="stop-color:rgb(219,152,23);stop-opacity:0.62"/><stop offset="0.95" style="stop-color:rgb(210,144,23);stop-opacity:0.81"/><stop offset="1" style="stop-color:rgb(203,137,23);stop-opacity:1"/></radialGradient>
        <radialGradient id="_Radial2" cx="0" cy="0" r="1" gradientUnits="userSpaceOnUse" gradientTransform="matrix(50298.5,44.1526,-174.546,50298.5,210951,38460.3)"><stop offset="0" style="stop-color:rgb(246,178,25);stop-opacity:0"/><stop offset="0.33" style="stop-color:rgb(245,177,24);stop-opacity:0.01"/><stop offset="0.47" style="stop-color:rgb(244,176,24);stop-opacity:0.05"/><stop offset="0.58" style="stop-color:rgb(241,173,24);stop-opacity:0.11"/><stop offset="0.67" style="stop-color:rgb(237,169,24);stop-opacity:0.2"/><stop offset="0.75" style="stop-color:rgb(232,165,24);stop-opacity:0.31"/><stop offset="0.82" style="stop-color:rgb(226,159,24);stop-opacity:0.45"/><stop offset="0.89" style="stop-color:rgb(219,152,23);stop-opacity:0.62"/><stop offset="0.95" style="stop-color:rgb(210,144,23);stop-opacity:0.81"/><stop offset="1" style="stop-color:rgb(203,137,23);stop-opacity:1"/></radialGradient>
    </defs>
</svg>
