<svg xmlns="http://www.w3.org/2000/svg" xmlns:xlink="http://www.w3.org/1999/xlink" width="725" zoomAndPan="magnify" viewBox="0 0 543.75 749.999995" height="1000" preserveAspectRatio="xMidYMid meet" version="1.0"><defs><clipPath id="ee05cb3c24"><path d="M 1 3 L 543.5 3 L 543.5 746 L 1 746 Z M 1 3 " clip-rule="nonzero"/></clipPath></defs><g clip-path="url(#ee05cb3c24)"><path fill="#dfb38e" d="M 179.261719 289.929688 C 179.703125 245.113281 180.582031 199.859375 181.019531 154.601562 C 181.019531 122.089844 181.019531 89.136719 180.140625 56.625 C 179.703125 32.898438 193.761719 10.488281 213.972656 4.777344 C 234.183594 -0.933594 257.46875 10.929688 265.820312 29.382812 C 268.386719 36.183594 269.851562 43.210938 270.210938 50.472656 C 270.652344 104.953125 270.210938 159.4375 270.652344 214.355469 C 270.652344 236.324219 270.210938 257.855469 270.210938 280.261719 C 281.636719 270.597656 289.984375 260.929688 300.527344 255.21875 C 311.074219 249.507812 325.574219 251.265625 337.875 256.535156 C 357.207031 264.882812 365.996094 289.488281 363.796875 324.640625 L 369.949219 312.777344 C 380.054688 295.640625 400.703125 286.851562 418.28125 292.125 C 435.855469 297.398438 453.867188 316.730469 452.988281 338.257812 C 452.628906 346.777344 452.921875 355.269531 453.867188 363.742188 C 461.777344 350.5625 469.6875 338.699219 485.0625 334.742188 C 518.015625 326.835938 543.5 348.363281 543.0625 381.316406 C 542.621094 414.269531 541.742188 457.328125 539.546875 495.113281 C 538.226562 522.792969 535.589844 550.472656 532.078125 577.714844 C 528.5625 604.957031 514.0625 632.195312 496.925781 655.484375 C 450.355469 717.433594 388.402344 749.949219 310.195312 745.554688 C 225.398438 741.160156 159.492188 702.9375 120.386719 625.605469 C 81.28125 548.277344 45.695312 470.507812 7.910156 392.742188 C 6.21875 389.363281 4.871094 385.855469 3.855469 382.21875 C 2.84375 378.578125 2.183594 374.878906 1.882812 371.113281 C 1.582031 367.347656 1.644531 363.589844 2.066406 359.839844 C 2.488281 356.085938 3.265625 352.40625 4.394531 348.804688 C 7.910156 335.621094 32.953125 321.5625 48.769531 324.199219 C 64.585938 326.835938 74.253906 331.230469 83.039062 343.972656 C 110.722656 384.394531 139.71875 424.375 167.839844 464.359375 L 178.824219 478.855469 C 178.824219 416.027344 178.824219 353.199219 179.261719 289.929688 Z M 179.261719 289.929688 " fill-opacity="1" fill-rule="nonzero"/></g></svg>