<svg xmlns="http://www.w3.org/2000/svg" xmlns:xlink="http://www.w3.org/1999/xlink" width="1000" zoomAndPan="magnify" viewBox="0 0 750 749.999995" height="1000" preserveAspectRatio="xMidYMid meet" version="1.0"><defs><clipPath id="2e8ada3dce"><path d="M 375 0 C 167.894531 0 0 167.894531 0 375 C 0 582.105469 167.894531 750 375 750 C 582.105469 750 750 582.105469 750 375 C 750 167.894531 582.105469 0 375 0 Z M 375 0 " clip-rule="nonzero"/></clipPath></defs><g clip-path="url(#2e8ada3dce)"><path stroke-linecap="butt" transform="matrix(0.75, 0, 0, 0.75, 0.00000265, 0.00002)" fill="none" stroke-linejoin="miter" d="M 499.999989 -0.0000266667 C 223.859368 -0.0000266667 -0.00000353333 223.859345 -0.00000353333 499.999966 C -0.00000353333 776.140586 223.859368 999.999958 499.999989 999.999958 C 776.14061 999.999958 999.999981 776.140586 999.999981 499.999966 C 999.999981 223.859345 776.14061 -0.0000266667 499.999989 -0.0000266667 Z M 499.999989 -0.0000266667 " stroke="#ffde59" stroke-width="90" stroke-opacity="1" stroke-miterlimit="4"/></g></svg>